# xmcd
#
# Track frame offsets: 
#        150
#        9905
#        33747
#        52030
#        81062
#        107795
#        133430
#        160470
#        179085
#        199037
#        240872
#        284057
#        309330
#
# Disc length: 4601 seconds
#
# Revision: 13
# Processed by: cddbd v1.5.2PL0 Copyright (c) Steve Scherf et al.
# Submitted via: ExactAudioCopy v0.99pb5
#
DISCID=b911f70d
DTITLE=B.B. King - Live In Japan
DYEAR=1971
DGENRE=Blues
TTITLE0=Every Day I Have The Blues
TTITLE1=How Blue Can You Get?
TTITLE2=Eyesight To The Blind
TTITLE3=Niji Baby
TTITLE4=You're Still My Woman
TTITLE5=Chains And Things
TTITLE6=Sweet Sixteen
TTITLE7=Hummingbird
TTITLE8=Darlin' You Know I Love You
TTITLE9=Japanese Boogie
TTITLE10=Jamming At Sankei Hall
TTITLE11=The Thrill Is Gone
TTITLE12=Hikari #88
EXTD=Label: MCA RECORDS\nBestellnummer: 111 810-2\nFirma: Universal Ve
EXTD=rtrieb\nEVOE: 1971 - LP\n------\nRecorded March 4 and 7, 1971, Sa
EXTD=nkei Hall, Tokyo, Japan.\n\nOriginally released as ABC-LP (Japan)
EXTD=841, "Live In Japan" as a double LP, 1971.\n\n\n Für freedb bere
EXTD=i
EXTT0=
EXTT1=
EXTT2=
EXTT3=
EXTT4=
EXTT5=
EXTT6=
EXTT7=
EXTT8=
EXTT9=
EXTT10=
EXTT11=
EXTT12=
PLAYORDER=
